<svg width="208" height="40" viewBox="0 0 208 40" fill="none" xmlns="http://www.w3.org/2000/svg">
<rect width="40" height="40" rx="8" fill="#87E64B"/>
<path d="M20.2 8.8C15.2297 8.8 11.2 12.8298 11.2 17.8C11.2 19.7571 11.8416 21.553 12.9081 23.0238C12.9272 23.059 12.9302 23.0984 12.952 23.1321L18.952 32.1321C19.2302 32.5495 19.699 32.8 20.2 32.8C20.701 32.8 21.1697 32.5495 21.448 32.1321L27.448 23.1321C27.4701 23.0984 27.4727 23.059 27.4918 23.0238C28.5583 21.553 29.2 19.7571 29.2 17.8C29.2 12.8298 25.1702 8.8 20.2 8.8ZM20.2 20.8C18.5432 20.8 17.2 19.4568 17.2 17.8C17.2 16.1433 18.5432 14.8 20.2 14.8C21.8567 14.8 23.2 16.1433 23.2 17.8C23.2 19.4568 21.8567 20.8 20.2 20.8Z" fill="black"/>
<path d="M58.848 31.608C56.7787 31.608 55.0293 31.2773 53.6 30.616C52.192 29.9547 51.1147 29.048 50.368 27.896C49.6213 26.7227 49.248 25.4 49.248 23.928H53.696C53.696 24.5467 53.8667 25.1547 54.208 25.752C54.5493 26.328 55.0933 26.7973 55.84 27.16C56.608 27.5227 57.6107 27.704 58.848 27.704C59.9573 27.704 60.8853 27.544 61.632 27.224C62.3787 26.904 62.9333 26.488 63.296 25.976C63.6587 25.4427 63.84 24.8453 63.84 24.184C63.84 23.352 63.488 22.6907 62.784 22.2C62.08 21.688 60.992 21.368 59.52 21.24L57.472 21.08C55.232 20.888 53.44 20.1947 52.096 19C50.7733 17.784 50.112 16.184 50.112 14.2C50.112 12.7067 50.464 11.4267 51.168 10.36C51.872 9.272 52.8533 8.44 54.112 7.864C55.392 7.26667 56.8853 6.968 58.592 6.968C60.3627 6.968 61.888 7.27733 63.168 7.896C64.448 8.51467 65.44 9.38933 66.144 10.52C66.848 11.6293 67.2 12.9413 67.2 14.456H62.752C62.752 13.816 62.592 13.2293 62.272 12.696C61.9733 12.1413 61.5147 11.704 60.896 11.384C60.2987 11.0427 59.5307 10.872 58.592 10.872C57.696 10.872 56.9493 11.0213 56.352 11.32C55.7547 11.6187 55.3067 12.024 55.008 12.536C54.7093 13.048 54.56 13.6027 54.56 14.2C54.56 14.9253 54.8267 15.5653 55.36 16.12C55.8933 16.6533 56.736 16.9627 57.888 17.048L59.936 17.24C61.6 17.368 63.0613 17.72 64.32 18.296C65.5787 18.872 66.5493 19.6507 67.232 20.632C67.936 21.6133 68.288 22.7973 68.288 24.184C68.288 25.656 67.904 26.9573 67.136 28.088C66.368 29.1973 65.2693 30.0613 63.84 30.68C62.432 31.2987 60.768 31.608 58.848 31.608ZM79.6425 31.224C78.0425 31.224 76.7198 31.0213 75.6745 30.616C74.6505 30.1893 73.8825 29.4853 73.3705 28.504C72.8585 27.5013 72.6025 26.1573 72.6025 24.472L72.6345 8.728H76.7945L76.7625 24.76C76.7625 25.6133 76.9865 26.2747 77.4345 26.744C77.9038 27.192 78.5652 27.416 79.4185 27.416H82.1385V31.224H79.6425ZM69.8505 16.888V13.624H82.1385V16.888H69.8505ZM96.3373 31V25.848H95.6013V20.12C95.6013 19.1173 95.3559 18.3707 94.8653 17.88C94.3746 17.3893 93.6173 17.144 92.5933 17.144C92.0599 17.144 91.4199 17.1547 90.6733 17.176C89.9266 17.1973 89.1693 17.2293 88.4013 17.272C87.6546 17.2933 86.9826 17.3253 86.3853 17.368V13.592C86.8759 13.5493 87.4306 13.5067 88.0493 13.464C88.6679 13.4213 89.2973 13.4 89.9373 13.4C90.5986 13.3787 91.2173 13.368 91.7933 13.368C93.5853 13.368 95.0679 13.6027 96.2413 14.072C97.4359 14.5413 98.3319 15.2773 98.9293 16.28C99.5479 17.2827 99.8573 18.5947 99.8573 20.216V31H96.3373ZM90.7373 31.448C89.4786 31.448 88.3693 31.224 87.4093 30.776C86.4706 30.328 85.7346 29.688 85.2013 28.856C84.6893 28.024 84.4333 27.0213 84.4333 25.848C84.4333 24.568 84.7426 23.5227 85.3613 22.712C86.0013 21.9013 86.8866 21.2933 88.0173 20.888C89.1693 20.4827 90.5133 20.28 92.0493 20.28H96.0813V22.936H91.9853C90.9613 22.936 90.1719 23.192 89.6173 23.704C89.0839 24.1947 88.8173 24.8347 88.8173 25.624C88.8173 26.4133 89.0839 27.0533 89.6173 27.544C90.1719 28.0347 90.9613 28.28 91.9853 28.28C92.6039 28.28 93.1693 28.1733 93.6813 27.96C94.2146 27.7253 94.6519 27.3413 94.9933 26.808C95.3559 26.2533 95.5586 25.5067 95.6013 24.568L96.6893 25.816C96.5826 27.032 96.2839 28.056 95.7933 28.888C95.3239 29.72 94.6626 30.36 93.8093 30.808C92.9773 31.2347 91.9533 31.448 90.7373 31.448ZM103.891 37.848V34.04H107.155C107.774 34.04 108.286 33.9547 108.691 33.784C109.118 33.6347 109.47 33.3787 109.747 33.016C110.024 32.6747 110.238 32.1947 110.387 31.576L115.059 13.624H119.315L114.163 32.536C113.822 33.8373 113.342 34.872 112.723 35.64C112.104 36.4293 111.304 36.9947 110.323 37.336C109.363 37.6773 108.168 37.848 106.739 37.848H103.891ZM109.299 30.616V27.096H113.011V30.616H109.299ZM107.795 30.616L102.163 13.624H106.643L111.987 30.616H107.795ZM126.628 23.832V19.896H131.172C132.089 19.896 132.857 19.7147 133.476 19.352C134.116 18.9893 134.596 18.488 134.916 17.848C135.257 17.208 135.428 16.472 135.428 15.64C135.428 14.808 135.257 14.072 134.916 13.432C134.596 12.792 134.116 12.3013 133.476 11.96C132.857 11.5973 132.089 11.416 131.172 11.416H126.628V7.48H130.788C132.75 7.48 134.414 7.8 135.78 8.44C137.166 9.08 138.222 9.99733 138.948 11.192C139.673 12.3653 140.036 13.7627 140.036 15.384V15.896C140.036 17.5173 139.673 18.9253 138.948 20.12C138.222 21.2933 137.166 22.2107 135.78 22.872C134.414 23.512 132.75 23.832 130.788 23.832H126.628ZM122.724 31V7.48H127.268V31H122.724ZM151.536 31.608C150 31.608 148.646 31.3627 147.472 30.872C146.299 30.3813 145.307 29.72 144.496 28.888C143.686 28.0347 143.067 27.0747 142.64 26.008C142.235 24.9413 142.032 23.832 142.032 22.68V22.008C142.032 20.8133 142.246 19.6827 142.672 18.616C143.12 17.528 143.75 16.568 144.56 15.736C145.392 14.8827 146.395 14.2213 147.568 13.752C148.742 13.2613 150.064 13.016 151.536 13.016C153.008 13.016 154.331 13.2613 155.504 13.752C156.678 14.2213 157.67 14.8827 158.48 15.736C159.312 16.568 159.942 17.528 160.368 18.616C160.795 19.6827 161.008 20.8133 161.008 22.008V22.68C161.008 23.832 160.795 24.9413 160.368 26.008C159.963 27.0747 159.355 28.0347 158.544 28.888C157.734 29.72 156.742 30.3813 155.568 30.872C154.395 31.3627 153.051 31.608 151.536 31.608ZM151.536 27.8C152.624 27.8 153.542 27.5653 154.288 27.096C155.035 26.6053 155.6 25.9547 155.984 25.144C156.368 24.312 156.56 23.3733 156.56 22.328C156.56 21.2613 156.358 20.3227 155.952 19.512C155.568 18.68 154.992 18.0293 154.224 17.56C153.478 17.0693 152.582 16.824 151.536 16.824C150.491 16.824 149.584 17.0693 148.816 17.56C148.07 18.0293 147.494 18.68 147.088 19.512C146.683 20.3227 146.48 21.2613 146.48 22.328C146.48 23.3733 146.672 24.312 147.056 25.144C147.462 25.9547 148.038 26.6053 148.784 27.096C149.531 27.5653 150.448 27.8 151.536 27.8ZM165.735 31V13.624H170.183V31H165.735ZM163.303 16.952V13.624H170.183V16.952H163.303ZM167.367 11.544C166.492 11.544 165.842 11.32 165.415 10.872C165.01 10.4027 164.807 9.82667 164.807 9.144C164.807 8.41867 165.01 7.832 165.415 7.384C165.842 6.936 166.492 6.712 167.367 6.712C168.242 6.712 168.882 6.936 169.287 7.384C169.692 7.832 169.895 8.41867 169.895 9.144C169.895 9.82667 169.692 10.4027 169.287 10.872C168.882 11.32 168.242 11.544 167.367 11.544ZM175.309 31V13.624H178.829V21.08H178.509C178.509 19.3093 178.744 17.8373 179.213 16.664C179.683 15.4693 180.376 14.5733 181.293 13.976C182.232 13.3787 183.395 13.08 184.781 13.08H184.973C187.043 13.08 188.611 13.752 189.677 15.096C190.744 16.4187 191.277 18.4027 191.277 21.048V31H186.829V20.664C186.829 19.5973 186.52 18.7333 185.901 18.072C185.304 17.4107 184.472 17.08 183.405 17.08C182.317 17.08 181.432 17.4213 180.749 18.104C180.088 18.7653 179.757 19.6613 179.757 20.792V31H175.309ZM203.611 31.224C202.011 31.224 200.689 31.0213 199.643 30.616C198.619 30.1893 197.851 29.4853 197.339 28.504C196.827 27.5013 196.571 26.1573 196.571 24.472L196.603 8.728H200.763L200.731 24.76C200.731 25.6133 200.955 26.2747 201.403 26.744C201.873 27.192 202.534 27.416 203.387 27.416H206.107V31.224H203.611ZM193.819 16.888V13.624H206.107V16.888H193.819Z" fill="#87E64B"/>
</svg>
